<?xml version="1.0" encoding="utf-8" standalone="no"?>
<!DOCTYPE svg PUBLIC "-//W3C//DTD SVG 1.1//EN"
  "http://www.w3.org/Graphics/SVG/1.1/DTD/svg11.dtd">
<!-- Created with matplotlib (http://matplotlib.org/) -->
<svg height="396pt" version="1.1" viewBox="0 0 576 396" width="576pt" xmlns="http://www.w3.org/2000/svg" xmlns:xlink="http://www.w3.org/1999/xlink">
 <defs>
  <style type="text/css">
*{stroke-linecap:butt;stroke-linejoin:round;}
  </style>
 </defs>
 <g id="figure_1">
  <g id="patch_1">
   <path d="M 0 396 
L 576 396 
L 576 0 
L 0 0 
z
" style="fill:#ffffff;"/>
  </g>
  <g id="axes_1">
   <g id="patch_2">
    <path d="M 33.181875 103.173702 
L 557.04 103.173702 
L 557.04 68.249827 
L 33.181875 68.249827 
z
" style="fill:#ffffff;"/>
   </g>
   <g id="matplotlib.axis_1"/>
   <g id="matplotlib.axis_2">
    <g id="ytick_1">
     <g id="line2d_1">
      <defs>
       <path d="M 0 0 
L -6 0 
" id="mfa22cf88b1" style="stroke:#262626;"/>
      </defs>
      <g>
       <use style="fill:#262626;stroke:#262626;" x="33.181875" xlink:href="#mfa22cf88b1" y="94.442733"/>
      </g>
     </g>
     <g id="text_1">
      <!-- C -->
      <defs>
       <path d="M 58.796875 25.09375 
L 68.265625 22.703125 
Q 65.28125 11.03125 57.546875 4.90625 
Q 49.8125 -1.21875 38.625 -1.21875 
Q 27.046875 -1.21875 19.796875 3.484375 
Q 12.546875 8.203125 8.765625 17.140625 
Q 4.984375 26.078125 4.984375 36.328125 
Q 4.984375 47.515625 9.25 55.828125 
Q 13.53125 64.15625 21.40625 68.46875 
Q 29.296875 72.796875 38.765625 72.796875 
Q 49.515625 72.796875 56.828125 67.328125 
Q 64.15625 61.859375 67.046875 51.953125 
L 57.71875 49.75 
Q 55.21875 57.5625 50.484375 61.125 
Q 45.75 64.703125 38.578125 64.703125 
Q 30.328125 64.703125 24.78125 60.734375 
Q 19.234375 56.78125 16.984375 50.109375 
Q 14.75 43.453125 14.75 36.375 
Q 14.75 27.25 17.40625 20.4375 
Q 20.0625 13.625 25.671875 10.25 
Q 31.296875 6.890625 37.84375 6.890625 
Q 45.796875 6.890625 51.3125 11.46875 
Q 56.84375 16.0625 58.796875 25.09375 
" id="ArialMT-43"/>
      </defs>
      <g style="fill:#262626;" transform="translate(12.96 98.02164)scale(0.1 -0.1)">
       <use xlink:href="#ArialMT-43"/>
      </g>
     </g>
    </g>
    <g id="ytick_2">
     <g id="line2d_2">
      <g>
       <use style="fill:#262626;stroke:#262626;" x="33.181875" xlink:href="#mfa22cf88b1" y="76.980796"/>
      </g>
     </g>
     <g id="text_2">
      <!-- E -->
      <defs>
       <path d="M 7.90625 0 
L 7.90625 71.578125 
L 59.671875 71.578125 
L 59.671875 63.140625 
L 17.390625 63.140625 
L 17.390625 41.21875 
L 56.984375 41.21875 
L 56.984375 32.8125 
L 17.390625 32.8125 
L 17.390625 8.453125 
L 61.328125 8.453125 
L 61.328125 0 
z
" id="ArialMT-45"/>
      </defs>
      <g style="fill:#262626;" transform="translate(13.511563 80.559702)scale(0.1 -0.1)">
       <use xlink:href="#ArialMT-45"/>
      </g>
     </g>
    </g>
   </g>
   <g id="QuadMesh_1">
    <path clip-path="url(#p954645b385)" d="M 33.181875 103.173702 
L 50.643813 103.173702 
L 50.643813 85.711765 
L 33.181875 85.711765 
L 33.181875 103.173702 
" style="fill:#e0b0b3;stroke:#ffffff;stroke-width:2;"/>
    <path clip-path="url(#p954645b385)" d="M 50.643813 103.173702 
L 68.10575 103.173702 
L 68.10575 85.711765 
L 50.643813 85.711765 
L 50.643813 103.173702 
" style="fill:#edd1cb;stroke:#ffffff;stroke-width:2;"/>
    <path clip-path="url(#p954645b385)" d="M 68.10575 103.173702 
L 85.567688 103.173702 
L 85.567688 85.711765 
L 68.10575 85.711765 
L 68.10575 103.173702 
" style="fill:#cf91a3;stroke:#ffffff;stroke-width:2;"/>
    <path clip-path="url(#p954645b385)" d="M 85.567688 103.173702 
L 103.029625 103.173702 
L 103.029625 85.711765 
L 85.567688 85.711765 
L 85.567688 103.173702 
" style="fill:#e0b0b3;stroke:#ffffff;stroke-width:2;"/>
    <path clip-path="url(#p954645b385)" d="M 103.029625 103.173702 
L 120.491563 103.173702 
L 120.491563 85.711765 
L 103.029625 85.711765 
L 103.029625 103.173702 
" style="fill:#cf91a3;stroke:#ffffff;stroke-width:2;"/>
    <path clip-path="url(#p954645b385)" d="M 120.491563 103.173702 
L 137.9535 103.173702 
L 137.9535 85.711765 
L 120.491563 85.711765 
L 120.491563 103.173702 
" style="fill:#f9f1ec;stroke:#ffffff;stroke-width:2;"/>
    <path clip-path="url(#p954645b385)" d="M 137.9535 103.173702 
L 155.415437 103.173702 
L 155.415437 85.711765 
L 137.9535 85.711765 
L 137.9535 103.173702 
" style="fill:#edd1cb;stroke:#ffffff;stroke-width:2;"/>
    <path clip-path="url(#p954645b385)" d="M 155.415437 103.173702 
L 172.877375 103.173702 
L 172.877375 85.711765 
L 155.415437 85.711765 
L 155.415437 103.173702 
" style="fill:#cf91a3;stroke:#ffffff;stroke-width:2;"/>
    <path clip-path="url(#p954645b385)" d="M 172.877375 103.173702 
L 190.339313 103.173702 
L 190.339313 85.711765 
L 172.877375 85.711765 
L 172.877375 103.173702 
" style="fill:#e0b0b3;stroke:#ffffff;stroke-width:2;"/>
    <path clip-path="url(#p954645b385)" d="M 190.339313 103.173702 
L 207.80125 103.173702 
L 207.80125 85.711765 
L 190.339313 85.711765 
L 190.339313 103.173702 
" style="fill:#edd1cb;stroke:#ffffff;stroke-width:2;"/>
    <path clip-path="url(#p954645b385)" d="M 207.80125 103.173702 
L 225.263188 103.173702 
L 225.263188 85.711765 
L 207.80125 85.711765 
L 207.80125 103.173702 
" style="fill:#2d1e3e;stroke:#ffffff;stroke-width:2;"/>
    <path clip-path="url(#p954645b385)" d="M 225.263188 103.173702 
L 242.725125 103.173702 
L 242.725125 85.711765 
L 225.263188 85.711765 
L 225.263188 103.173702 
" style="fill:#b77495;stroke:#ffffff;stroke-width:2;"/>
    <path clip-path="url(#p954645b385)" d="M 242.725125 103.173702 
L 260.187063 103.173702 
L 260.187063 85.711765 
L 242.725125 85.711765 
L 242.725125 103.173702 
" style="fill:#e0b0b3;stroke:#ffffff;stroke-width:2;"/>
    <path clip-path="url(#p954645b385)" d="M 260.187063 103.173702 
L 277.649 103.173702 
L 277.649 85.711765 
L 260.187063 85.711765 
L 260.187063 103.173702 
" style="fill:#e0b0b3;stroke:#ffffff;stroke-width:2;"/>
    <path clip-path="url(#p954645b385)" d="M 277.649 103.173702 
L 295.110938 103.173702 
L 295.110938 85.711765 
L 277.649 85.711765 
L 277.649 103.173702 
" style="fill:#f9f1ec;stroke:#ffffff;stroke-width:2;"/>
    <path clip-path="url(#p954645b385)" d="M 295.110938 103.173702 
L 312.572875 103.173702 
L 312.572875 85.711765 
L 295.110938 85.711765 
L 295.110938 103.173702 
" style="fill:#edd1cb;stroke:#ffffff;stroke-width:2;"/>
    <path clip-path="url(#p954645b385)" d="M 312.572875 103.173702 
L 330.034812 103.173702 
L 330.034812 85.711765 
L 312.572875 85.711765 
L 312.572875 103.173702 
" style="fill:#754475;stroke:#ffffff;stroke-width:2;"/>
    <path clip-path="url(#p954645b385)" d="M 330.034812 103.173702 
L 347.49675 103.173702 
L 347.49675 85.711765 
L 330.034812 85.711765 
L 330.034812 103.173702 
" style="fill:#cf91a3;stroke:#ffffff;stroke-width:2;"/>
    <path clip-path="url(#p954645b385)" d="M 347.49675 103.173702 
L 364.958687 103.173702 
L 364.958687 85.711765 
L 347.49675 85.711765 
L 347.49675 103.173702 
" style="fill:#cf91a3;stroke:#ffffff;stroke-width:2;"/>
    <path clip-path="url(#p954645b385)" d="M 364.958687 103.173702 
L 382.420625 103.173702 
L 382.420625 85.711765 
L 364.958687 85.711765 
L 364.958687 103.173702 
" style="fill:#f9f1ec;stroke:#ffffff;stroke-width:2;"/>
    <path clip-path="url(#p954645b385)" d="M 382.420625 103.173702 
L 399.882563 103.173702 
L 399.882563 85.711765 
L 382.420625 85.711765 
L 382.420625 103.173702 
" style="fill:#b77495;stroke:#ffffff;stroke-width:2;"/>
    <path clip-path="url(#p954645b385)" d="M 399.882563 103.173702 
L 417.3445 103.173702 
L 417.3445 85.711765 
L 399.882563 85.711765 
L 399.882563 103.173702 
" style="fill:#edd1cb;stroke:#ffffff;stroke-width:2;"/>
    <path clip-path="url(#p954645b385)" d="M 417.3445 103.173702 
L 434.806438 103.173702 
L 434.806438 85.711765 
L 417.3445 85.711765 
L 417.3445 103.173702 
" style="fill:#754475;stroke:#ffffff;stroke-width:2;"/>
    <path clip-path="url(#p954645b385)" d="M 434.806438 103.173702 
L 452.268375 103.173702 
L 452.268375 85.711765 
L 434.806438 85.711765 
L 434.806438 103.173702 
" style="fill:#f9f1ec;stroke:#ffffff;stroke-width:2;"/>
    <path clip-path="url(#p954645b385)" d="M 452.268375 103.173702 
L 469.730313 103.173702 
L 469.730313 85.711765 
L 452.268375 85.711765 
L 452.268375 103.173702 
" style="fill:#cf91a3;stroke:#ffffff;stroke-width:2;"/>
    <path clip-path="url(#p954645b385)" d="M 469.730313 103.173702 
L 487.19225 103.173702 
L 487.19225 85.711765 
L 469.730313 85.711765 
L 469.730313 103.173702 
" style="fill:#e0b0b3;stroke:#ffffff;stroke-width:2;"/>
    <path clip-path="url(#p954645b385)" d="M 487.19225 103.173702 
L 504.654188 103.173702 
L 504.654188 85.711765 
L 487.19225 85.711765 
L 487.19225 103.173702 
" style="fill:#edd1cb;stroke:#ffffff;stroke-width:2;"/>
    <path clip-path="url(#p954645b385)" d="M 504.654188 103.173702 
L 522.116125 103.173702 
L 522.116125 85.711765 
L 504.654188 85.711765 
L 504.654188 103.173702 
" style="fill:#f9f1ec;stroke:#ffffff;stroke-width:2;"/>
    <path clip-path="url(#p954645b385)" d="M 522.116125 103.173702 
L 539.578063 103.173702 
L 539.578063 85.711765 
L 522.116125 85.711765 
L 522.116125 103.173702 
" style="fill:#e0b0b3;stroke:#ffffff;stroke-width:2;"/>
    <path clip-path="url(#p954645b385)" d="M 539.578063 103.173702 
L 557.04 103.173702 
L 557.04 85.711765 
L 539.578063 85.711765 
L 539.578063 103.173702 
" style="fill:#b77495;stroke:#ffffff;stroke-width:2;"/>
    <path clip-path="url(#p954645b385)" d="M 33.181875 85.711765 
L 50.643813 85.711765 
L 50.643813 68.249827 
L 33.181875 68.249827 
L 33.181875 85.711765 
" style="fill:#edd1cb;stroke:#ffffff;stroke-width:2;"/>
    <path clip-path="url(#p954645b385)" d="M 50.643813 85.711765 
L 68.10575 85.711765 
L 68.10575 68.249827 
L 50.643813 68.249827 
L 50.643813 85.711765 
" style="fill:#e0b0b3;stroke:#ffffff;stroke-width:2;"/>
    <path clip-path="url(#p954645b385)" d="M 68.10575 85.711765 
L 85.567688 85.711765 
L 85.567688 68.249827 
L 68.10575 68.249827 
L 68.10575 85.711765 
" style="fill:#edd1cb;stroke:#ffffff;stroke-width:2;"/>
    <path clip-path="url(#p954645b385)" d="M 85.567688 85.711765 
L 103.029625 85.711765 
L 103.029625 68.249827 
L 85.567688 68.249827 
L 85.567688 85.711765 
" style="fill:#f9f1ec;stroke:#ffffff;stroke-width:2;"/>
    <path clip-path="url(#p954645b385)" d="M 103.029625 85.711765 
L 120.491563 85.711765 
L 120.491563 68.249827 
L 103.029625 68.249827 
L 103.029625 85.711765 
" style="fill:#e0b0b3;stroke:#ffffff;stroke-width:2;"/>
    <path clip-path="url(#p954645b385)" d="M 120.491563 85.711765 
L 137.9535 85.711765 
L 137.9535 68.249827 
L 120.491563 68.249827 
L 120.491563 85.711765 
" style="fill:#995a88;stroke:#ffffff;stroke-width:2;"/>
    <path clip-path="url(#p954645b385)" d="M 137.9535 85.711765 
L 155.415437 85.711765 
L 155.415437 68.249827 
L 137.9535 68.249827 
L 137.9535 85.711765 
" style="fill:#edd1cb;stroke:#ffffff;stroke-width:2;"/>
    <path clip-path="url(#p954645b385)" d="M 155.415437 85.711765 
L 172.877375 85.711765 
L 172.877375 68.249827 
L 155.415437 68.249827 
L 155.415437 85.711765 
" style="fill:#e0b0b3;stroke:#ffffff;stroke-width:2;"/>
    <path clip-path="url(#p954645b385)" d="M 172.877375 85.711765 
L 190.339313 85.711765 
L 190.339313 68.249827 
L 172.877375 68.249827 
L 172.877375 85.711765 
" style="fill:#edd1cb;stroke:#ffffff;stroke-width:2;"/>
    <path clip-path="url(#p954645b385)" d="M 190.339313 85.711765 
L 207.80125 85.711765 
L 207.80125 68.249827 
L 190.339313 68.249827 
L 190.339313 85.711765 
" style="fill:#50305d;stroke:#ffffff;stroke-width:2;"/>
    <path clip-path="url(#p954645b385)" d="M 207.80125 85.711765 
L 225.263188 85.711765 
L 225.263188 68.249827 
L 207.80125 68.249827 
L 207.80125 85.711765 
" style="fill:#f9f1ec;stroke:#ffffff;stroke-width:2;"/>
    <path clip-path="url(#p954645b385)" d="M 225.263188 85.711765 
L 242.725125 85.711765 
L 242.725125 68.249827 
L 225.263188 68.249827 
L 225.263188 85.711765 
" style="fill:#cf91a3;stroke:#ffffff;stroke-width:2;"/>
    <path clip-path="url(#p954645b385)" d="M 242.725125 85.711765 
L 260.187063 85.711765 
L 260.187063 68.249827 
L 242.725125 68.249827 
L 242.725125 85.711765 
" style="fill:#e0b0b3;stroke:#ffffff;stroke-width:2;"/>
    <path clip-path="url(#p954645b385)" d="M 260.187063 85.711765 
L 277.649 85.711765 
L 277.649 68.249827 
L 260.187063 68.249827 
L 260.187063 85.711765 
" style="fill:#2d1e3e;stroke:#ffffff;stroke-width:2;"/>
    <path clip-path="url(#p954645b385)" d="M 277.649 85.711765 
L 295.110938 85.711765 
L 295.110938 68.249827 
L 277.649 68.249827 
L 277.649 85.711765 
" style="fill:#754475;stroke:#ffffff;stroke-width:2;"/>
    <path clip-path="url(#p954645b385)" d="M 295.110938 85.711765 
L 312.572875 85.711765 
L 312.572875 68.249827 
L 295.110938 68.249827 
L 295.110938 85.711765 
" style="fill:#754475;stroke:#ffffff;stroke-width:2;"/>
    <path clip-path="url(#p954645b385)" d="M 312.572875 85.711765 
L 330.034812 85.711765 
L 330.034812 68.249827 
L 312.572875 68.249827 
L 312.572875 85.711765 
" style="fill:#b77495;stroke:#ffffff;stroke-width:2;"/>
    <path clip-path="url(#p954645b385)" d="M 330.034812 85.711765 
L 347.49675 85.711765 
L 347.49675 68.249827 
L 330.034812 68.249827 
L 330.034812 85.711765 
" style="fill:#e0b0b3;stroke:#ffffff;stroke-width:2;"/>
    <path clip-path="url(#p954645b385)" d="M 347.49675 85.711765 
L 364.958687 85.711765 
L 364.958687 68.249827 
L 347.49675 68.249827 
L 347.49675 85.711765 
" style="fill:#f9f1ec;stroke:#ffffff;stroke-width:2;"/>
    <path clip-path="url(#p954645b385)" d="M 364.958687 85.711765 
L 382.420625 85.711765 
L 382.420625 68.249827 
L 364.958687 68.249827 
L 364.958687 85.711765 
" style="fill:#b77495;stroke:#ffffff;stroke-width:2;"/>
    <path clip-path="url(#p954645b385)" d="M 382.420625 85.711765 
L 399.882563 85.711765 
L 399.882563 68.249827 
L 382.420625 68.249827 
L 382.420625 85.711765 
" style="fill:#e0b0b3;stroke:#ffffff;stroke-width:2;"/>
    <path clip-path="url(#p954645b385)" d="M 399.882563 85.711765 
L 417.3445 85.711765 
L 417.3445 68.249827 
L 399.882563 68.249827 
L 399.882563 85.711765 
" style="fill:#edd1cb;stroke:#ffffff;stroke-width:2;"/>
    <path clip-path="url(#p954645b385)" d="M 417.3445 85.711765 
L 434.806438 85.711765 
L 434.806438 68.249827 
L 417.3445 68.249827 
L 417.3445 85.711765 
" style="fill:#f9f1ec;stroke:#ffffff;stroke-width:2;"/>
    <path clip-path="url(#p954645b385)" d="M 434.806438 85.711765 
L 452.268375 85.711765 
L 452.268375 68.249827 
L 434.806438 68.249827 
L 434.806438 85.711765 
" style="fill:#995a88;stroke:#ffffff;stroke-width:2;"/>
    <path clip-path="url(#p954645b385)" d="M 452.268375 85.711765 
L 469.730313 85.711765 
L 469.730313 68.249827 
L 452.268375 68.249827 
L 452.268375 85.711765 
" style="fill:#edd1cb;stroke:#ffffff;stroke-width:2;"/>
    <path clip-path="url(#p954645b385)" d="M 469.730313 85.711765 
L 487.19225 85.711765 
L 487.19225 68.249827 
L 469.730313 68.249827 
L 469.730313 85.711765 
" style="fill:#e0b0b3;stroke:#ffffff;stroke-width:2;"/>
    <path clip-path="url(#p954645b385)" d="M 487.19225 85.711765 
L 504.654188 85.711765 
L 504.654188 68.249827 
L 487.19225 68.249827 
L 487.19225 85.711765 
" style="fill:#cf91a3;stroke:#ffffff;stroke-width:2;"/>
    <path clip-path="url(#p954645b385)" d="M 504.654188 85.711765 
L 522.116125 85.711765 
L 522.116125 68.249827 
L 504.654188 68.249827 
L 504.654188 85.711765 
" style="fill:#cf91a3;stroke:#ffffff;stroke-width:2;"/>
    <path clip-path="url(#p954645b385)" d="M 522.116125 85.711765 
L 539.578063 85.711765 
L 539.578063 68.249827 
L 522.116125 68.249827 
L 522.116125 85.711765 
" style="fill:#f9f1ec;stroke:#ffffff;stroke-width:2;"/>
    <path clip-path="url(#p954645b385)" d="M 539.578063 85.711765 
L 557.04 85.711765 
L 557.04 68.249827 
L 539.578063 68.249827 
L 539.578063 85.711765 
" style="fill:#edd1cb;stroke:#ffffff;stroke-width:2;"/>
   </g>
  </g>
  <g id="axes_2">
   <g id="patch_3">
    <path d="M 33.181875 215.461938 
L 557.04 215.461938 
L 557.04 180.538063 
L 33.181875 180.538063 
z
" style="fill:#ffffff;"/>
   </g>
   <g id="matplotlib.axis_3"/>
   <g id="matplotlib.axis_4">
    <g id="ytick_3">
     <g id="line2d_3">
      <g>
       <use style="fill:#262626;stroke:#262626;" x="33.181875" xlink:href="#mfa22cf88b1" y="206.730969"/>
      </g>
     </g>
     <g id="text_3">
      <!-- C -->
      <g style="fill:#262626;" transform="translate(12.96 210.309875)scale(0.1 -0.1)">
       <use xlink:href="#ArialMT-43"/>
      </g>
     </g>
    </g>
    <g id="ytick_4">
     <g id="line2d_4">
      <g>
       <use style="fill:#262626;stroke:#262626;" x="33.181875" xlink:href="#mfa22cf88b1" y="189.269031"/>
      </g>
     </g>
     <g id="text_4">
      <!-- E -->
      <g style="fill:#262626;" transform="translate(13.511563 192.847938)scale(0.1 -0.1)">
       <use xlink:href="#ArialMT-45"/>
      </g>
     </g>
    </g>
   </g>
   <g id="QuadMesh_2">
    <path clip-path="url(#pbe8f0f2ec1)" d="M 33.181875 215.461938 
L 50.643813 215.461938 
L 50.643813 198 
L 33.181875 198 
L 33.181875 215.461938 
" style="fill:#f9f1ec;stroke:#ffffff;stroke-width:2;"/>
    <path clip-path="url(#pbe8f0f2ec1)" d="M 50.643813 215.461938 
L 68.10575 215.461938 
L 68.10575 198 
L 50.643813 198 
L 50.643813 215.461938 
" style="fill:#f9f1ec;stroke:#ffffff;stroke-width:2;"/>
    <path clip-path="url(#pbe8f0f2ec1)" d="M 68.10575 215.461938 
L 85.567688 215.461938 
L 85.567688 198 
L 68.10575 198 
L 68.10575 215.461938 
" style="fill:#f9f1ec;stroke:#ffffff;stroke-width:2;"/>
    <path clip-path="url(#pbe8f0f2ec1)" d="M 85.567688 215.461938 
L 103.029625 215.461938 
L 103.029625 198 
L 85.567688 198 
L 85.567688 215.461938 
" style="fill:#edd1cb;stroke:#ffffff;stroke-width:2;"/>
    <path clip-path="url(#pbe8f0f2ec1)" d="M 103.029625 215.461938 
L 120.491563 215.461938 
L 120.491563 198 
L 103.029625 198 
L 103.029625 215.461938 
" style="fill:#995a88;stroke:#ffffff;stroke-width:2;"/>
    <path clip-path="url(#pbe8f0f2ec1)" d="M 120.491563 215.461938 
L 137.9535 215.461938 
L 137.9535 198 
L 120.491563 198 
L 120.491563 215.461938 
" style="fill:#754475;stroke:#ffffff;stroke-width:2;"/>
    <path clip-path="url(#pbe8f0f2ec1)" d="M 137.9535 215.461938 
L 155.415437 215.461938 
L 155.415437 198 
L 137.9535 198 
L 137.9535 215.461938 
" style="fill:#b77495;stroke:#ffffff;stroke-width:2;"/>
    <path clip-path="url(#pbe8f0f2ec1)" d="M 155.415437 215.461938 
L 172.877375 215.461938 
L 172.877375 198 
L 155.415437 198 
L 155.415437 215.461938 
" style="fill:#edd1cb;stroke:#ffffff;stroke-width:2;"/>
    <path clip-path="url(#pbe8f0f2ec1)" d="M 172.877375 215.461938 
L 190.339313 215.461938 
L 190.339313 198 
L 172.877375 198 
L 172.877375 215.461938 
" style="fill:#2d1e3e;stroke:#ffffff;stroke-width:2;"/>
    <path clip-path="url(#pbe8f0f2ec1)" d="M 190.339313 215.461938 
L 207.80125 215.461938 
L 207.80125 198 
L 190.339313 198 
L 190.339313 215.461938 
" style="fill:#995a88;stroke:#ffffff;stroke-width:2;"/>
    <path clip-path="url(#pbe8f0f2ec1)" d="M 207.80125 215.461938 
L 225.263188 215.461938 
L 225.263188 198 
L 207.80125 198 
L 207.80125 215.461938 
" style="fill:#f9f1ec;stroke:#ffffff;stroke-width:2;"/>
    <path clip-path="url(#pbe8f0f2ec1)" d="M 225.263188 215.461938 
L 242.725125 215.461938 
L 242.725125 198 
L 225.263188 198 
L 225.263188 215.461938 
" style="fill:#edd1cb;stroke:#ffffff;stroke-width:2;"/>
    <path clip-path="url(#pbe8f0f2ec1)" d="M 242.725125 215.461938 
L 260.187063 215.461938 
L 260.187063 198 
L 242.725125 198 
L 242.725125 215.461938 
" style="fill:#e0b0b3;stroke:#ffffff;stroke-width:2;"/>
    <path clip-path="url(#pbe8f0f2ec1)" d="M 260.187063 215.461938 
L 277.649 215.461938 
L 277.649 198 
L 260.187063 198 
L 260.187063 215.461938 
" style="fill:#f9f1ec;stroke:#ffffff;stroke-width:2;"/>
    <path clip-path="url(#pbe8f0f2ec1)" d="M 277.649 215.461938 
L 295.110938 215.461938 
L 295.110938 198 
L 277.649 198 
L 277.649 215.461938 
" style="fill:#f9f1ec;stroke:#ffffff;stroke-width:2;"/>
    <path clip-path="url(#pbe8f0f2ec1)" d="M 295.110938 215.461938 
L 312.572875 215.461938 
L 312.572875 198 
L 295.110938 198 
L 295.110938 215.461938 
" style="fill:#e0b0b3;stroke:#ffffff;stroke-width:2;"/>
    <path clip-path="url(#pbe8f0f2ec1)" d="M 312.572875 215.461938 
L 330.034812 215.461938 
L 330.034812 198 
L 312.572875 198 
L 312.572875 215.461938 
" style="fill:#50305d;stroke:#ffffff;stroke-width:2;"/>
    <path clip-path="url(#pbe8f0f2ec1)" d="M 330.034812 215.461938 
L 347.49675 215.461938 
L 347.49675 198 
L 330.034812 198 
L 330.034812 215.461938 
" style="fill:#e0b0b3;stroke:#ffffff;stroke-width:2;"/>
    <path clip-path="url(#pbe8f0f2ec1)" d="M 347.49675 215.461938 
L 364.958687 215.461938 
L 364.958687 198 
L 347.49675 198 
L 347.49675 215.461938 
" style="fill:#e0b0b3;stroke:#ffffff;stroke-width:2;"/>
    <path clip-path="url(#pbe8f0f2ec1)" d="M 364.958687 215.461938 
L 382.420625 215.461938 
L 382.420625 198 
L 364.958687 198 
L 364.958687 215.461938 
" style="fill:#e0b0b3;stroke:#ffffff;stroke-width:2;"/>
    <path clip-path="url(#pbe8f0f2ec1)" d="M 382.420625 215.461938 
L 399.882563 215.461938 
L 399.882563 198 
L 382.420625 198 
L 382.420625 215.461938 
" style="fill:#edd1cb;stroke:#ffffff;stroke-width:2;"/>
    <path clip-path="url(#pbe8f0f2ec1)" d="M 399.882563 215.461938 
L 417.3445 215.461938 
L 417.3445 198 
L 399.882563 198 
L 399.882563 215.461938 
" style="fill:#e0b0b3;stroke:#ffffff;stroke-width:2;"/>
    <path clip-path="url(#pbe8f0f2ec1)" d="M 417.3445 215.461938 
L 434.806438 215.461938 
L 434.806438 198 
L 417.3445 198 
L 417.3445 215.461938 
" style="fill:#e0b0b3;stroke:#ffffff;stroke-width:2;"/>
    <path clip-path="url(#pbe8f0f2ec1)" d="M 434.806438 215.461938 
L 452.268375 215.461938 
L 452.268375 198 
L 434.806438 198 
L 434.806438 215.461938 
" style="fill:#e0b0b3;stroke:#ffffff;stroke-width:2;"/>
    <path clip-path="url(#pbe8f0f2ec1)" d="M 452.268375 215.461938 
L 469.730313 215.461938 
L 469.730313 198 
L 452.268375 198 
L 452.268375 215.461938 
" style="fill:#cf91a3;stroke:#ffffff;stroke-width:2;"/>
    <path clip-path="url(#pbe8f0f2ec1)" d="M 469.730313 215.461938 
L 487.19225 215.461938 
L 487.19225 198 
L 469.730313 198 
L 469.730313 215.461938 
" style="fill:#f9f1ec;stroke:#ffffff;stroke-width:2;"/>
    <path clip-path="url(#pbe8f0f2ec1)" d="M 487.19225 215.461938 
L 504.654188 215.461938 
L 504.654188 198 
L 487.19225 198 
L 487.19225 215.461938 
" style="fill:#edd1cb;stroke:#ffffff;stroke-width:2;"/>
    <path clip-path="url(#pbe8f0f2ec1)" d="M 504.654188 215.461938 
L 522.116125 215.461938 
L 522.116125 198 
L 504.654188 198 
L 504.654188 215.461938 
" style="fill:#edd1cb;stroke:#ffffff;stroke-width:2;"/>
    <path clip-path="url(#pbe8f0f2ec1)" d="M 522.116125 215.461938 
L 539.578063 215.461938 
L 539.578063 198 
L 522.116125 198 
L 522.116125 215.461938 
" style="fill:#50305d;stroke:#ffffff;stroke-width:2;"/>
    <path clip-path="url(#pbe8f0f2ec1)" d="M 539.578063 215.461938 
L 557.04 215.461938 
L 557.04 198 
L 539.578063 198 
L 539.578063 215.461938 
" style="fill:#f9f1ec;stroke:#ffffff;stroke-width:2;"/>
    <path clip-path="url(#pbe8f0f2ec1)" d="M 33.181875 198 
L 50.643813 198 
L 50.643813 180.538063 
L 33.181875 180.538063 
L 33.181875 198 
" style="fill:#754475;stroke:#ffffff;stroke-width:2;"/>
    <path clip-path="url(#pbe8f0f2ec1)" d="M 50.643813 198 
L 68.10575 198 
L 68.10575 180.538063 
L 50.643813 180.538063 
L 50.643813 198 
" style="fill:#b77495;stroke:#ffffff;stroke-width:2;"/>
    <path clip-path="url(#pbe8f0f2ec1)" d="M 68.10575 198 
L 85.567688 198 
L 85.567688 180.538063 
L 68.10575 180.538063 
L 68.10575 198 
" style="fill:#b77495;stroke:#ffffff;stroke-width:2;"/>
    <path clip-path="url(#pbe8f0f2ec1)" d="M 85.567688 198 
L 103.029625 198 
L 103.029625 180.538063 
L 85.567688 180.538063 
L 85.567688 198 
" style="fill:#b77495;stroke:#ffffff;stroke-width:2;"/>
    <path clip-path="url(#pbe8f0f2ec1)" d="M 103.029625 198 
L 120.491563 198 
L 120.491563 180.538063 
L 103.029625 180.538063 
L 103.029625 198 
" style="fill:#edd1cb;stroke:#ffffff;stroke-width:2;"/>
    <path clip-path="url(#pbe8f0f2ec1)" d="M 120.491563 198 
L 137.9535 198 
L 137.9535 180.538063 
L 120.491563 180.538063 
L 120.491563 198 
" style="fill:#edd1cb;stroke:#ffffff;stroke-width:2;"/>
    <path clip-path="url(#pbe8f0f2ec1)" d="M 137.9535 198 
L 155.415437 198 
L 155.415437 180.538063 
L 137.9535 180.538063 
L 137.9535 198 
" style="fill:#cf91a3;stroke:#ffffff;stroke-width:2;"/>
    <path clip-path="url(#pbe8f0f2ec1)" d="M 155.415437 198 
L 172.877375 198 
L 172.877375 180.538063 
L 155.415437 180.538063 
L 155.415437 198 
" style="fill:#cf91a3;stroke:#ffffff;stroke-width:2;"/>
    <path clip-path="url(#pbe8f0f2ec1)" d="M 172.877375 198 
L 190.339313 198 
L 190.339313 180.538063 
L 172.877375 180.538063 
L 172.877375 198 
" style="fill:#edd1cb;stroke:#ffffff;stroke-width:2;"/>
    <path clip-path="url(#pbe8f0f2ec1)" d="M 190.339313 198 
L 207.80125 198 
L 207.80125 180.538063 
L 190.339313 180.538063 
L 190.339313 198 
" style="fill:#edd1cb;stroke:#ffffff;stroke-width:2;"/>
    <path clip-path="url(#pbe8f0f2ec1)" d="M 207.80125 198 
L 225.263188 198 
L 225.263188 180.538063 
L 207.80125 180.538063 
L 207.80125 198 
" style="fill:#b77495;stroke:#ffffff;stroke-width:2;"/>
    <path clip-path="url(#pbe8f0f2ec1)" d="M 225.263188 198 
L 242.725125 198 
L 242.725125 180.538063 
L 225.263188 180.538063 
L 225.263188 198 
" style="fill:#2d1e3e;stroke:#ffffff;stroke-width:2;"/>
    <path clip-path="url(#pbe8f0f2ec1)" d="M 242.725125 198 
L 260.187063 198 
L 260.187063 180.538063 
L 242.725125 180.538063 
L 242.725125 198 
" style="fill:#cf91a3;stroke:#ffffff;stroke-width:2;"/>
    <path clip-path="url(#pbe8f0f2ec1)" d="M 260.187063 198 
L 277.649 198 
L 277.649 180.538063 
L 260.187063 180.538063 
L 260.187063 198 
" style="fill:#995a88;stroke:#ffffff;stroke-width:2;"/>
    <path clip-path="url(#pbe8f0f2ec1)" d="M 277.649 198 
L 295.110938 198 
L 295.110938 180.538063 
L 277.649 180.538063 
L 277.649 198 
" style="fill:#e0b0b3;stroke:#ffffff;stroke-width:2;"/>
    <path clip-path="url(#pbe8f0f2ec1)" d="M 295.110938 198 
L 312.572875 198 
L 312.572875 180.538063 
L 295.110938 180.538063 
L 295.110938 198 
" style="fill:#f9f1ec;stroke:#ffffff;stroke-width:2;"/>
    <path clip-path="url(#pbe8f0f2ec1)" d="M 312.572875 198 
L 330.034812 198 
L 330.034812 180.538063 
L 312.572875 180.538063 
L 312.572875 198 
" style="fill:#f9f1ec;stroke:#ffffff;stroke-width:2;"/>
    <path clip-path="url(#pbe8f0f2ec1)" d="M 330.034812 198 
L 347.49675 198 
L 347.49675 180.538063 
L 330.034812 180.538063 
L 330.034812 198 
" style="fill:#edd1cb;stroke:#ffffff;stroke-width:2;"/>
    <path clip-path="url(#pbe8f0f2ec1)" d="M 347.49675 198 
L 364.958687 198 
L 364.958687 180.538063 
L 347.49675 180.538063 
L 347.49675 198 
" style="fill:#cf91a3;stroke:#ffffff;stroke-width:2;"/>
    <path clip-path="url(#pbe8f0f2ec1)" d="M 364.958687 198 
L 382.420625 198 
L 382.420625 180.538063 
L 364.958687 180.538063 
L 364.958687 198 
" style="fill:#f9f1ec;stroke:#ffffff;stroke-width:2;"/>
    <path clip-path="url(#pbe8f0f2ec1)" d="M 382.420625 198 
L 399.882563 198 
L 399.882563 180.538063 
L 382.420625 180.538063 
L 382.420625 198 
" style="fill:#e0b0b3;stroke:#ffffff;stroke-width:2;"/>
    <path clip-path="url(#pbe8f0f2ec1)" d="M 399.882563 198 
L 417.3445 198 
L 417.3445 180.538063 
L 399.882563 180.538063 
L 399.882563 198 
" style="fill:#edd1cb;stroke:#ffffff;stroke-width:2;"/>
    <path clip-path="url(#pbe8f0f2ec1)" d="M 417.3445 198 
L 434.806438 198 
L 434.806438 180.538063 
L 417.3445 180.538063 
L 417.3445 198 
" style="fill:#edd1cb;stroke:#ffffff;stroke-width:2;"/>
    <path clip-path="url(#pbe8f0f2ec1)" d="M 434.806438 198 
L 452.268375 198 
L 452.268375 180.538063 
L 434.806438 180.538063 
L 434.806438 198 
" style="fill:#edd1cb;stroke:#ffffff;stroke-width:2;"/>
    <path clip-path="url(#pbe8f0f2ec1)" d="M 452.268375 198 
L 469.730313 198 
L 469.730313 180.538063 
L 452.268375 180.538063 
L 452.268375 198 
" style="fill:#b77495;stroke:#ffffff;stroke-width:2;"/>
    <path clip-path="url(#pbe8f0f2ec1)" d="M 469.730313 198 
L 487.19225 198 
L 487.19225 180.538063 
L 469.730313 180.538063 
L 469.730313 198 
" style="fill:#995a88;stroke:#ffffff;stroke-width:2;"/>
    <path clip-path="url(#pbe8f0f2ec1)" d="M 487.19225 198 
L 504.654188 198 
L 504.654188 180.538063 
L 487.19225 180.538063 
L 487.19225 198 
" style="fill:#f9f1ec;stroke:#ffffff;stroke-width:2;"/>
    <path clip-path="url(#pbe8f0f2ec1)" d="M 504.654188 198 
L 522.116125 198 
L 522.116125 180.538063 
L 504.654188 180.538063 
L 504.654188 198 
" style="fill:#edd1cb;stroke:#ffffff;stroke-width:2;"/>
    <path clip-path="url(#pbe8f0f2ec1)" d="M 522.116125 198 
L 539.578063 198 
L 539.578063 180.538063 
L 522.116125 180.538063 
L 522.116125 198 
" style="fill:#edd1cb;stroke:#ffffff;stroke-width:2;"/>
    <path clip-path="url(#pbe8f0f2ec1)" d="M 539.578063 198 
L 557.04 198 
L 557.04 180.538063 
L 539.578063 180.538063 
L 539.578063 198 
" style="fill:#754475;stroke:#ffffff;stroke-width:2;"/>
   </g>
  </g>
  <g id="axes_3">
   <g id="patch_4">
    <path d="M 33.181875 327.750173 
L 557.04 327.750173 
L 557.04 292.826298 
L 33.181875 292.826298 
z
" style="fill:#ffffff;"/>
   </g>
   <g id="matplotlib.axis_5"/>
   <g id="matplotlib.axis_6">
    <g id="ytick_5">
     <g id="line2d_5">
      <g>
       <use style="fill:#262626;stroke:#262626;" x="33.181875" xlink:href="#mfa22cf88b1" y="319.019204"/>
      </g>
     </g>
     <g id="text_5">
      <!-- C -->
      <g style="fill:#262626;" transform="translate(12.96 322.59811)scale(0.1 -0.1)">
       <use xlink:href="#ArialMT-43"/>
      </g>
     </g>
    </g>
    <g id="ytick_6">
     <g id="line2d_6">
      <g>
       <use style="fill:#262626;stroke:#262626;" x="33.181875" xlink:href="#mfa22cf88b1" y="301.557267"/>
      </g>
     </g>
     <g id="text_6">
      <!-- E -->
      <g style="fill:#262626;" transform="translate(13.511563 305.136173)scale(0.1 -0.1)">
       <use xlink:href="#ArialMT-45"/>
      </g>
     </g>
    </g>
   </g>
   <g id="QuadMesh_3">
    <path clip-path="url(#p93e34fd2fb)" d="M 33.181875 327.750173 
L 50.643813 327.750173 
L 50.643813 310.288235 
L 33.181875 310.288235 
L 33.181875 327.750173 
" style="fill:#f1dcd6;stroke:#ffffff;stroke-width:2;"/>
    <path clip-path="url(#p93e34fd2fb)" d="M 50.643813 327.750173 
L 68.10575 327.750173 
L 68.10575 310.288235 
L 50.643813 310.288235 
L 50.643813 327.750173 
" style="fill:#f1dcd6;stroke:#ffffff;stroke-width:2;"/>
    <path clip-path="url(#p93e34fd2fb)" d="M 68.10575 327.750173 
L 85.567688 327.750173 
L 85.567688 310.288235 
L 68.10575 310.288235 
L 68.10575 327.750173 
" style="fill:#e0b0b3;stroke:#ffffff;stroke-width:2;"/>
    <path clip-path="url(#p93e34fd2fb)" d="M 85.567688 327.750173 
L 103.029625 327.750173 
L 103.029625 310.288235 
L 85.567688 310.288235 
L 85.567688 327.750173 
" style="fill:#e0b0b3;stroke:#ffffff;stroke-width:2;"/>
    <path clip-path="url(#p93e34fd2fb)" d="M 103.029625 327.750173 
L 120.491563 327.750173 
L 120.491563 310.288235 
L 103.029625 310.288235 
L 103.029625 327.750173 
" style="fill:#f9f1ec;stroke:#ffffff;stroke-width:2;"/>
    <path clip-path="url(#p93e34fd2fb)" d="M 120.491563 327.750173 
L 137.9535 327.750173 
L 137.9535 310.288235 
L 120.491563 310.288235 
L 120.491563 327.750173 
" style="fill:#eac7c3;stroke:#ffffff;stroke-width:2;"/>
    <path clip-path="url(#p93e34fd2fb)" d="M 137.9535 327.750173 
L 155.415437 327.750173 
L 155.415437 310.288235 
L 137.9535 310.288235 
L 137.9535 327.750173 
" style="fill:#f9f1ec;stroke:#ffffff;stroke-width:2;"/>
    <path clip-path="url(#p93e34fd2fb)" d="M 155.415437 327.750173 
L 172.877375 327.750173 
L 172.877375 310.288235 
L 155.415437 310.288235 
L 155.415437 327.750173 
" style="fill:#f1dcd6;stroke:#ffffff;stroke-width:2;"/>
    <path clip-path="url(#p93e34fd2fb)" d="M 172.877375 327.750173 
L 190.339313 327.750173 
L 190.339313 310.288235 
L 172.877375 310.288235 
L 172.877375 327.750173 
" style="fill:#f1dcd6;stroke:#ffffff;stroke-width:2;"/>
    <path clip-path="url(#p93e34fd2fb)" d="M 190.339313 327.750173 
L 207.80125 327.750173 
L 207.80125 310.288235 
L 190.339313 310.288235 
L 190.339313 327.750173 
" style="fill:#c9889f;stroke:#ffffff;stroke-width:2;"/>
    <path clip-path="url(#p93e34fd2fb)" d="M 207.80125 327.750173 
L 225.263188 327.750173 
L 225.263188 310.288235 
L 207.80125 310.288235 
L 207.80125 327.750173 
" style="fill:#eac7c3;stroke:#ffffff;stroke-width:2;"/>
    <path clip-path="url(#p93e34fd2fb)" d="M 225.263188 327.750173 
L 242.725125 327.750173 
L 242.725125 310.288235 
L 225.263188 310.288235 
L 225.263188 327.750173 
" style="fill:#eac7c3;stroke:#ffffff;stroke-width:2;"/>
    <path clip-path="url(#p93e34fd2fb)" d="M 242.725125 327.750173 
L 260.187063 327.750173 
L 260.187063 310.288235 
L 242.725125 310.288235 
L 242.725125 327.750173 
" style="fill:#f9f1ec;stroke:#ffffff;stroke-width:2;"/>
    <path clip-path="url(#p93e34fd2fb)" d="M 260.187063 327.750173 
L 277.649 327.750173 
L 277.649 310.288235 
L 260.187063 310.288235 
L 260.187063 327.750173 
" style="fill:#f9f1ec;stroke:#ffffff;stroke-width:2;"/>
    <path clip-path="url(#p93e34fd2fb)" d="M 277.649 327.750173 
L 295.110938 327.750173 
L 295.110938 310.288235 
L 277.649 310.288235 
L 277.649 327.750173 
" style="fill:#d59ba8;stroke:#ffffff;stroke-width:2;"/>
    <path clip-path="url(#p93e34fd2fb)" d="M 295.110938 327.750173 
L 312.572875 327.750173 
L 312.572875 310.288235 
L 295.110938 310.288235 
L 295.110938 327.750173 
" style="fill:#e0b0b3;stroke:#ffffff;stroke-width:2;"/>
    <path clip-path="url(#p93e34fd2fb)" d="M 312.572875 327.750173 
L 330.034812 327.750173 
L 330.034812 310.288235 
L 312.572875 310.288235 
L 312.572875 327.750173 
" style="fill:#f1dcd6;stroke:#ffffff;stroke-width:2;"/>
    <path clip-path="url(#p93e34fd2fb)" d="M 330.034812 327.750173 
L 347.49675 327.750173 
L 347.49675 310.288235 
L 330.034812 310.288235 
L 330.034812 327.750173 
" style="fill:#f1dcd6;stroke:#ffffff;stroke-width:2;"/>
    <path clip-path="url(#p93e34fd2fb)" d="M 347.49675 327.750173 
L 364.958687 327.750173 
L 364.958687 310.288235 
L 347.49675 310.288235 
L 347.49675 327.750173 
" style="fill:#f1dcd6;stroke:#ffffff;stroke-width:2;"/>
    <path clip-path="url(#p93e34fd2fb)" d="M 364.958687 327.750173 
L 382.420625 327.750173 
L 382.420625 310.288235 
L 364.958687 310.288235 
L 364.958687 327.750173 
" style="fill:#eac7c3;stroke:#ffffff;stroke-width:2;"/>
    <path clip-path="url(#p93e34fd2fb)" d="M 382.420625 327.750173 
L 399.882563 327.750173 
L 399.882563 310.288235 
L 382.420625 310.288235 
L 382.420625 327.750173 
" style="fill:#d59ba8;stroke:#ffffff;stroke-width:2;"/>
    <path clip-path="url(#p93e34fd2fb)" d="M 399.882563 327.750173 
L 417.3445 327.750173 
L 417.3445 310.288235 
L 399.882563 310.288235 
L 399.882563 327.750173 
" style="fill:#d59ba8;stroke:#ffffff;stroke-width:2;"/>
    <path clip-path="url(#p93e34fd2fb)" d="M 417.3445 327.750173 
L 434.806438 327.750173 
L 434.806438 310.288235 
L 417.3445 310.288235 
L 417.3445 327.750173 
" style="fill:#f1dcd6;stroke:#ffffff;stroke-width:2;"/>
    <path clip-path="url(#p93e34fd2fb)" d="M 434.806438 327.750173 
L 452.268375 327.750173 
L 452.268375 310.288235 
L 434.806438 310.288235 
L 434.806438 327.750173 
" style="fill:#f1dcd6;stroke:#ffffff;stroke-width:2;"/>
    <path clip-path="url(#p93e34fd2fb)" d="M 452.268375 327.750173 
L 469.730313 327.750173 
L 469.730313 310.288235 
L 452.268375 310.288235 
L 452.268375 327.750173 
" style="fill:#eac7c3;stroke:#ffffff;stroke-width:2;"/>
    <path clip-path="url(#p93e34fd2fb)" d="M 469.730313 327.750173 
L 487.19225 327.750173 
L 487.19225 310.288235 
L 469.730313 310.288235 
L 469.730313 327.750173 
" style="fill:#f1dcd6;stroke:#ffffff;stroke-width:2;"/>
    <path clip-path="url(#p93e34fd2fb)" d="M 487.19225 327.750173 
L 504.654188 327.750173 
L 504.654188 310.288235 
L 487.19225 310.288235 
L 487.19225 327.750173 
" style="fill:#f1dcd6;stroke:#ffffff;stroke-width:2;"/>
    <path clip-path="url(#p93e34fd2fb)" d="M 504.654188 327.750173 
L 522.116125 327.750173 
L 522.116125 310.288235 
L 504.654188 310.288235 
L 504.654188 327.750173 
" style="fill:#2d1e3e;stroke:#ffffff;stroke-width:2;"/>
    <path clip-path="url(#p93e34fd2fb)" d="M 522.116125 327.750173 
L 539.578063 327.750173 
L 539.578063 310.288235 
L 522.116125 310.288235 
L 522.116125 327.750173 
" style="fill:#e0b0b3;stroke:#ffffff;stroke-width:2;"/>
    <path clip-path="url(#p93e34fd2fb)" d="M 539.578063 327.750173 
L 557.04 327.750173 
L 557.04 310.288235 
L 539.578063 310.288235 
L 539.578063 327.750173 
" style="fill:#f1dcd6;stroke:#ffffff;stroke-width:2;"/>
    <path clip-path="url(#p93e34fd2fb)" d="M 33.181875 310.288235 
L 50.643813 310.288235 
L 50.643813 292.826298 
L 33.181875 292.826298 
L 33.181875 310.288235 
" style="fill:#f1dcd6;stroke:#ffffff;stroke-width:2;"/>
    <path clip-path="url(#p93e34fd2fb)" d="M 50.643813 310.288235 
L 68.10575 310.288235 
L 68.10575 292.826298 
L 50.643813 292.826298 
L 50.643813 310.288235 
" style="fill:#d59ba8;stroke:#ffffff;stroke-width:2;"/>
    <path clip-path="url(#p93e34fd2fb)" d="M 68.10575 310.288235 
L 85.567688 310.288235 
L 85.567688 292.826298 
L 68.10575 292.826298 
L 68.10575 310.288235 
" style="fill:#f1dcd6;stroke:#ffffff;stroke-width:2;"/>
    <path clip-path="url(#p93e34fd2fb)" d="M 85.567688 310.288235 
L 103.029625 310.288235 
L 103.029625 292.826298 
L 85.567688 292.826298 
L 85.567688 310.288235 
" style="fill:#f1dcd6;stroke:#ffffff;stroke-width:2;"/>
    <path clip-path="url(#p93e34fd2fb)" d="M 103.029625 310.288235 
L 120.491563 310.288235 
L 120.491563 292.826298 
L 103.029625 292.826298 
L 103.029625 310.288235 
" style="fill:#b77495;stroke:#ffffff;stroke-width:2;"/>
    <path clip-path="url(#p93e34fd2fb)" d="M 120.491563 310.288235 
L 137.9535 310.288235 
L 137.9535 292.826298 
L 120.491563 292.826298 
L 120.491563 310.288235 
" style="fill:#f1dcd6;stroke:#ffffff;stroke-width:2;"/>
    <path clip-path="url(#p93e34fd2fb)" d="M 137.9535 310.288235 
L 155.415437 310.288235 
L 155.415437 292.826298 
L 137.9535 292.826298 
L 137.9535 310.288235 
" style="fill:#c9889f;stroke:#ffffff;stroke-width:2;"/>
    <path clip-path="url(#p93e34fd2fb)" d="M 155.415437 310.288235 
L 172.877375 310.288235 
L 172.877375 292.826298 
L 155.415437 292.826298 
L 155.415437 310.288235 
" style="fill:#f1dcd6;stroke:#ffffff;stroke-width:2;"/>
    <path clip-path="url(#p93e34fd2fb)" d="M 172.877375 310.288235 
L 190.339313 310.288235 
L 190.339313 292.826298 
L 172.877375 292.826298 
L 172.877375 310.288235 
" style="fill:#e0b0b3;stroke:#ffffff;stroke-width:2;"/>
    <path clip-path="url(#p93e34fd2fb)" d="M 190.339313 310.288235 
L 207.80125 310.288235 
L 207.80125 292.826298 
L 190.339313 292.826298 
L 190.339313 310.288235 
" style="fill:#f9f1ec;stroke:#ffffff;stroke-width:2;"/>
    <path clip-path="url(#p93e34fd2fb)" d="M 207.80125 310.288235 
L 225.263188 310.288235 
L 225.263188 292.826298 
L 207.80125 292.826298 
L 207.80125 310.288235 
" style="fill:#d59ba8;stroke:#ffffff;stroke-width:2;"/>
    <path clip-path="url(#p93e34fd2fb)" d="M 225.263188 310.288235 
L 242.725125 310.288235 
L 242.725125 292.826298 
L 225.263188 292.826298 
L 225.263188 310.288235 
" style="fill:#f1dcd6;stroke:#ffffff;stroke-width:2;"/>
    <path clip-path="url(#p93e34fd2fb)" d="M 242.725125 310.288235 
L 260.187063 310.288235 
L 260.187063 292.826298 
L 242.725125 292.826298 
L 242.725125 310.288235 
" style="fill:#e0b0b3;stroke:#ffffff;stroke-width:2;"/>
    <path clip-path="url(#p93e34fd2fb)" d="M 260.187063 310.288235 
L 277.649 310.288235 
L 277.649 292.826298 
L 260.187063 292.826298 
L 260.187063 310.288235 
" style="fill:#eac7c3;stroke:#ffffff;stroke-width:2;"/>
    <path clip-path="url(#p93e34fd2fb)" d="M 277.649 310.288235 
L 295.110938 310.288235 
L 295.110938 292.826298 
L 277.649 292.826298 
L 277.649 310.288235 
" style="fill:#e0b0b3;stroke:#ffffff;stroke-width:2;"/>
    <path clip-path="url(#p93e34fd2fb)" d="M 295.110938 310.288235 
L 312.572875 310.288235 
L 312.572875 292.826298 
L 295.110938 292.826298 
L 295.110938 310.288235 
" style="fill:#f9f1ec;stroke:#ffffff;stroke-width:2;"/>
    <path clip-path="url(#p93e34fd2fb)" d="M 312.572875 310.288235 
L 330.034812 310.288235 
L 330.034812 292.826298 
L 312.572875 292.826298 
L 312.572875 310.288235 
" style="fill:#c9889f;stroke:#ffffff;stroke-width:2;"/>
    <path clip-path="url(#p93e34fd2fb)" d="M 330.034812 310.288235 
L 347.49675 310.288235 
L 347.49675 292.826298 
L 330.034812 292.826298 
L 330.034812 310.288235 
" style="fill:#c9889f;stroke:#ffffff;stroke-width:2;"/>
    <path clip-path="url(#p93e34fd2fb)" d="M 347.49675 310.288235 
L 364.958687 310.288235 
L 364.958687 292.826298 
L 347.49675 292.826298 
L 347.49675 310.288235 
" style="fill:#e0b0b3;stroke:#ffffff;stroke-width:2;"/>
    <path clip-path="url(#p93e34fd2fb)" d="M 364.958687 310.288235 
L 382.420625 310.288235 
L 382.420625 292.826298 
L 364.958687 292.826298 
L 364.958687 310.288235 
" style="fill:#f1dcd6;stroke:#ffffff;stroke-width:2;"/>
    <path clip-path="url(#p93e34fd2fb)" d="M 382.420625 310.288235 
L 399.882563 310.288235 
L 399.882563 292.826298 
L 382.420625 292.826298 
L 382.420625 310.288235 
" style="fill:#c9889f;stroke:#ffffff;stroke-width:2;"/>
    <path clip-path="url(#p93e34fd2fb)" d="M 399.882563 310.288235 
L 417.3445 310.288235 
L 417.3445 292.826298 
L 399.882563 292.826298 
L 399.882563 310.288235 
" style="fill:#f9f1ec;stroke:#ffffff;stroke-width:2;"/>
    <path clip-path="url(#p93e34fd2fb)" d="M 417.3445 310.288235 
L 434.806438 310.288235 
L 434.806438 292.826298 
L 417.3445 292.826298 
L 417.3445 310.288235 
" style="fill:#c9889f;stroke:#ffffff;stroke-width:2;"/>
    <path clip-path="url(#p93e34fd2fb)" d="M 434.806438 310.288235 
L 452.268375 310.288235 
L 452.268375 292.826298 
L 434.806438 292.826298 
L 434.806438 310.288235 
" style="fill:#f1dcd6;stroke:#ffffff;stroke-width:2;"/>
    <path clip-path="url(#p93e34fd2fb)" d="M 452.268375 310.288235 
L 469.730313 310.288235 
L 469.730313 292.826298 
L 452.268375 292.826298 
L 452.268375 310.288235 
" style="fill:#e0b0b3;stroke:#ffffff;stroke-width:2;"/>
    <path clip-path="url(#p93e34fd2fb)" d="M 469.730313 310.288235 
L 487.19225 310.288235 
L 487.19225 292.826298 
L 469.730313 292.826298 
L 469.730313 310.288235 
" style="fill:#f1dcd6;stroke:#ffffff;stroke-width:2;"/>
    <path clip-path="url(#p93e34fd2fb)" d="M 487.19225 310.288235 
L 504.654188 310.288235 
L 504.654188 292.826298 
L 487.19225 292.826298 
L 487.19225 310.288235 
" style="fill:#d59ba8;stroke:#ffffff;stroke-width:2;"/>
    <path clip-path="url(#p93e34fd2fb)" d="M 504.654188 310.288235 
L 522.116125 310.288235 
L 522.116125 292.826298 
L 504.654188 292.826298 
L 504.654188 310.288235 
" style="fill:#f9f1ec;stroke:#ffffff;stroke-width:2;"/>
    <path clip-path="url(#p93e34fd2fb)" d="M 522.116125 310.288235 
L 539.578063 310.288235 
L 539.578063 292.826298 
L 522.116125 292.826298 
L 522.116125 310.288235 
" style="fill:#d59ba8;stroke:#ffffff;stroke-width:2;"/>
    <path clip-path="url(#p93e34fd2fb)" d="M 539.578063 310.288235 
L 557.04 310.288235 
L 557.04 292.826298 
L 539.578063 292.826298 
L 539.578063 310.288235 
" style="fill:#e0b0b3;stroke:#ffffff;stroke-width:2;"/>
   </g>
  </g>
 </g>
 <defs>
  <clipPath id="p954645b385">
   <rect height="34.923875" width="523.858125" x="33.181875" y="68.249827"/>
  </clipPath>
  <clipPath id="pbe8f0f2ec1">
   <rect height="34.923875" width="523.858125" x="33.181875" y="180.538063"/>
  </clipPath>
  <clipPath id="p93e34fd2fb">
   <rect height="34.923875" width="523.858125" x="33.181875" y="292.826298"/>
  </clipPath>
 </defs>
</svg>
